<mxfile host="app.diagrams.net" modified="2024-01-03T12:11:44.470Z" agent="Mozilla/5.0 (Windows NT 10.0; Win64; x64) AppleWebKit/537.36 (KHTML, like Gecko) Chrome/120.0.0.0 Safari/537.36" etag="cVFjWVfwtRxZ8iDW1-04" version="22.1.16" type="device">
  <diagram id="6a731a19-8d31-9384-78a2-239565b7b9f0" name="Page-1">
    <mxGraphModel dx="3077" dy="1132" grid="1" gridSize="10" guides="1" tooltips="1" connect="1" arrows="1" fold="1" page="1" pageScale="1" pageWidth="1169" pageHeight="827" background="none" math="0" shadow="0">
      <root>
        <mxCell id="0" />
        <mxCell id="1" parent="0" />
        <mxCell id="2" value="Mulai" style="shape=mxgraph.flowchart.terminator;strokeWidth=4;gradientColor=none;gradientDirection=north;fontStyle=0;html=1;" parent="1" vertex="1">
          <mxGeometry x="260" y="60" width="120" height="30" as="geometry" />
        </mxCell>
        <mxCell id="7" style="fontStyle=1;strokeColor=#003366;strokeWidth=1;html=1;" parent="1" source="2" target="lkC9FIdTwaO1htC5HUpL-55" edge="1">
          <mxGeometry relative="1" as="geometry" />
        </mxCell>
        <mxCell id="40" value="end" style="shape=mxgraph.flowchart.terminator;strokeWidth=4;gradientColor=none;gradientDirection=north;fontStyle=0;html=1;" parent="1" vertex="1">
          <mxGeometry x="260" y="720" width="120" height="30" as="geometry" />
        </mxCell>
        <mxCell id="43" value="" style="edgeStyle=elbowEdgeStyle;elbow=vertical;entryX=0.5;entryY=0;entryPerimeter=0;fontStyle=1;strokeColor=#003366;strokeWidth=1;html=1;" parent="1" source="lkC9FIdTwaO1htC5HUpL-60" target="40" edge="1">
          <mxGeometry width="100" height="100" as="geometry">
            <mxPoint x="320" y="750" as="sourcePoint" />
            <mxPoint x="90" y="-1230" as="targetPoint" />
          </mxGeometry>
        </mxCell>
        <mxCell id="lkC9FIdTwaO1htC5HUpL-55" value="Inisialisasi&lt;br&gt;Library Time" style="rounded=1;whiteSpace=wrap;html=1;strokeWidth=2;" vertex="1" parent="1">
          <mxGeometry x="260" y="130" width="120" height="60" as="geometry" />
        </mxCell>
        <mxCell id="lkC9FIdTwaO1htC5HUpL-56" value="Inisialisasi&lt;br&gt;Fungsi Greetings()&lt;br&gt;print &quot;Selamat Datang Di Toko Buku FZL&quot;" style="rounded=1;whiteSpace=wrap;html=1;strokeWidth=2;" vertex="1" parent="1">
          <mxGeometry x="215" y="210" width="210" height="100" as="geometry" />
        </mxCell>
        <mxCell id="lkC9FIdTwaO1htC5HUpL-57" style="fontStyle=1;strokeColor=#003366;strokeWidth=1;html=1;" edge="1" parent="1" source="lkC9FIdTwaO1htC5HUpL-55" target="lkC9FIdTwaO1htC5HUpL-56">
          <mxGeometry relative="1" as="geometry">
            <mxPoint x="330" y="100" as="sourcePoint" />
            <mxPoint x="330" y="140" as="targetPoint" />
          </mxGeometry>
        </mxCell>
        <mxCell id="lkC9FIdTwaO1htC5HUpL-58" value="Inisialisasi&lt;br&gt;Fungsi Main_Frame()&lt;br&gt;tampilkan &lt;br&gt;Adakah Yang Bisa Dibantu&lt;br&gt;1. Pilih Jenis Item&lt;br&gt;2. Cek Keranjang Belanja&lt;br&gt;3. Selesai" style="rounded=1;whiteSpace=wrap;html=1;strokeWidth=2;" vertex="1" parent="1">
          <mxGeometry x="187.5" y="330" width="265" height="130" as="geometry" />
        </mxCell>
        <mxCell id="lkC9FIdTwaO1htC5HUpL-59" style="fontStyle=1;strokeColor=#003366;strokeWidth=1;html=1;" edge="1" parent="1" source="lkC9FIdTwaO1htC5HUpL-56" target="lkC9FIdTwaO1htC5HUpL-58">
          <mxGeometry relative="1" as="geometry">
            <mxPoint x="330" y="100" as="sourcePoint" />
            <mxPoint x="330" y="140" as="targetPoint" />
          </mxGeometry>
        </mxCell>
        <mxCell id="lkC9FIdTwaO1htC5HUpL-60" value="pilihan (nomor)" style="shape=mxgraph.flowchart.decision;strokeWidth=2;gradientColor=none;gradientDirection=north;fontStyle=0;html=1;" vertex="1" parent="1">
          <mxGeometry x="255.5" y="590" width="129" height="82" as="geometry" />
        </mxCell>
        <mxCell id="lkC9FIdTwaO1htC5HUpL-61" value="Input Pilihan" style="shape=mxgraph.flowchart.data;strokeWidth=2;gradientColor=none;gradientDirection=north;fontStyle=0;html=1;" vertex="1" parent="1">
          <mxGeometry x="240.5" y="490" width="159" height="80" as="geometry" />
        </mxCell>
        <mxCell id="lkC9FIdTwaO1htC5HUpL-62" value="jika nomor = 1" style="text;html=1;align=center;verticalAlign=middle;resizable=0;points=[];autosize=1;strokeColor=none;fillColor=none;" vertex="1" parent="1">
          <mxGeometry x="370" y="599" width="100" height="30" as="geometry" />
        </mxCell>
        <mxCell id="lkC9FIdTwaO1htC5HUpL-63" value="Inisialisasi&lt;br&gt;Fungsi Pilih_Jenis_Item()" style="rounded=1;whiteSpace=wrap;html=1;strokeWidth=2;" vertex="1" parent="1">
          <mxGeometry x="510" y="599" width="150" height="64" as="geometry" />
        </mxCell>
        <mxCell id="lkC9FIdTwaO1htC5HUpL-64" style="fontStyle=1;strokeColor=#003366;strokeWidth=1;html=1;" edge="1" parent="1" source="lkC9FIdTwaO1htC5HUpL-58" target="lkC9FIdTwaO1htC5HUpL-61">
          <mxGeometry relative="1" as="geometry">
            <mxPoint x="330" y="320" as="sourcePoint" />
            <mxPoint x="330" y="340" as="targetPoint" />
          </mxGeometry>
        </mxCell>
        <mxCell id="lkC9FIdTwaO1htC5HUpL-66" style="fontStyle=1;strokeColor=#003366;strokeWidth=1;html=1;" edge="1" parent="1" source="lkC9FIdTwaO1htC5HUpL-60" target="lkC9FIdTwaO1htC5HUpL-63">
          <mxGeometry relative="1" as="geometry">
            <mxPoint x="330" y="470" as="sourcePoint" />
            <mxPoint x="330" y="500" as="targetPoint" />
          </mxGeometry>
        </mxCell>
        <mxCell id="lkC9FIdTwaO1htC5HUpL-67" value="Inisialisasi&lt;br&gt;Fungsi List_Item()" style="rounded=1;whiteSpace=wrap;html=1;strokeWidth=2;" vertex="1" parent="1">
          <mxGeometry x="510" y="920" width="150" height="64" as="geometry" />
        </mxCell>
        <mxCell id="lkC9FIdTwaO1htC5HUpL-68" style="fontStyle=1;strokeColor=#003366;strokeWidth=1;html=1;" edge="1" parent="1" source="lkC9FIdTwaO1htC5HUpL-69" target="lkC9FIdTwaO1htC5HUpL-67">
          <mxGeometry relative="1" as="geometry">
            <mxPoint x="395" y="769" as="sourcePoint" />
            <mxPoint x="520" y="769" as="targetPoint" />
          </mxGeometry>
        </mxCell>
        <mxCell id="lkC9FIdTwaO1htC5HUpL-70" value="" style="fontStyle=1;strokeColor=#003366;strokeWidth=1;html=1;" edge="1" parent="1" source="lkC9FIdTwaO1htC5HUpL-110" target="lkC9FIdTwaO1htC5HUpL-69">
          <mxGeometry relative="1" as="geometry">
            <mxPoint x="585" y="663" as="sourcePoint" />
            <mxPoint x="585" y="770" as="targetPoint" />
          </mxGeometry>
        </mxCell>
        <mxCell id="lkC9FIdTwaO1htC5HUpL-69" value="pilihan (nomor)" style="shape=mxgraph.flowchart.decision;strokeWidth=2;gradientColor=none;gradientDirection=north;fontStyle=0;html=1;" vertex="1" parent="1">
          <mxGeometry x="520.5" y="810" width="129" height="82" as="geometry" />
        </mxCell>
        <mxCell id="lkC9FIdTwaO1htC5HUpL-71" value="jika nomor = 0" style="text;html=1;align=center;verticalAlign=middle;resizable=0;points=[];autosize=1;strokeColor=none;fillColor=none;" vertex="1" parent="1">
          <mxGeometry x="600" y="540" width="100" height="30" as="geometry" />
        </mxCell>
        <mxCell id="lkC9FIdTwaO1htC5HUpL-72" style="fontStyle=1;strokeColor=#003366;strokeWidth=1;html=1;" edge="1" parent="1" source="lkC9FIdTwaO1htC5HUpL-69" target="lkC9FIdTwaO1htC5HUpL-58">
          <mxGeometry relative="1" as="geometry">
            <mxPoint x="330" y="470" as="sourcePoint" />
            <mxPoint x="330" y="500" as="targetPoint" />
            <Array as="points">
              <mxPoint x="700" y="851" />
              <mxPoint x="700" y="395" />
            </Array>
          </mxGeometry>
        </mxCell>
        <mxCell id="lkC9FIdTwaO1htC5HUpL-73" value="jika nomor = tersedia" style="text;html=1;align=center;verticalAlign=middle;resizable=0;points=[];autosize=1;strokeColor=none;fillColor=none;" vertex="1" parent="1">
          <mxGeometry x="590" y="880" width="140" height="30" as="geometry" />
        </mxCell>
        <mxCell id="lkC9FIdTwaO1htC5HUpL-74" value="Tambahkan Item Ke Keranjang Belanja" style="rounded=1;whiteSpace=wrap;html=1;strokeWidth=2;" vertex="1" parent="1">
          <mxGeometry x="510" y="1228" width="150" height="64" as="geometry" />
        </mxCell>
        <mxCell id="lkC9FIdTwaO1htC5HUpL-76" style="fontStyle=1;strokeColor=#003366;strokeWidth=1;html=1;" edge="1" parent="1" source="lkC9FIdTwaO1htC5HUpL-77" target="lkC9FIdTwaO1htC5HUpL-74">
          <mxGeometry relative="1" as="geometry">
            <mxPoint x="595" y="1010" as="sourcePoint" />
            <mxPoint x="595" y="1038" as="targetPoint" />
          </mxGeometry>
        </mxCell>
        <mxCell id="lkC9FIdTwaO1htC5HUpL-78" value="" style="fontStyle=1;strokeColor=#003366;strokeWidth=1;html=1;" edge="1" parent="1" source="lkC9FIdTwaO1htC5HUpL-112" target="lkC9FIdTwaO1htC5HUpL-77">
          <mxGeometry relative="1" as="geometry">
            <mxPoint x="585" y="1022" as="sourcePoint" />
            <mxPoint x="585" y="1138" as="targetPoint" />
          </mxGeometry>
        </mxCell>
        <mxCell id="lkC9FIdTwaO1htC5HUpL-77" value="pilihan (nomor)" style="shape=mxgraph.flowchart.decision;strokeWidth=2;gradientColor=none;gradientDirection=north;fontStyle=0;html=1;" vertex="1" parent="1">
          <mxGeometry x="520.5" y="1118" width="129" height="82" as="geometry" />
        </mxCell>
        <mxCell id="lkC9FIdTwaO1htC5HUpL-79" value="jika nomor = tersedia" style="text;html=1;align=center;verticalAlign=middle;resizable=0;points=[];autosize=1;strokeColor=none;fillColor=none;" vertex="1" parent="1">
          <mxGeometry x="580" y="1188" width="140" height="30" as="geometry" />
        </mxCell>
        <mxCell id="lkC9FIdTwaO1htC5HUpL-80" value="jika nomor = 0" style="text;html=1;align=center;verticalAlign=middle;resizable=0;points=[];autosize=1;strokeColor=none;fillColor=none;" vertex="1" parent="1">
          <mxGeometry x="640" y="1130" width="100" height="30" as="geometry" />
        </mxCell>
        <mxCell id="lkC9FIdTwaO1htC5HUpL-81" style="fontStyle=1;strokeColor=#003366;strokeWidth=2;html=1;" edge="1" parent="1" source="lkC9FIdTwaO1htC5HUpL-82" target="lkC9FIdTwaO1htC5HUpL-63">
          <mxGeometry relative="1" as="geometry">
            <mxPoint x="649.5" y="730" as="sourcePoint" />
            <mxPoint x="452.5" y="394" as="targetPoint" />
            <Array as="points">
              <mxPoint x="760" y="1550" />
              <mxPoint x="770" y="770" />
              <mxPoint x="770" y="630" />
            </Array>
          </mxGeometry>
        </mxCell>
        <mxCell id="lkC9FIdTwaO1htC5HUpL-82" value="pilihan y/n" style="shape=mxgraph.flowchart.decision;strokeWidth=2;gradientColor=none;gradientDirection=north;fontStyle=0;html=1;" vertex="1" parent="1">
          <mxGeometry x="520" y="1510" width="129" height="82" as="geometry" />
        </mxCell>
        <mxCell id="lkC9FIdTwaO1htC5HUpL-83" style="fontStyle=1;strokeColor=#003366;strokeWidth=1;html=1;" edge="1" parent="1" source="lkC9FIdTwaO1htC5HUpL-114" target="lkC9FIdTwaO1htC5HUpL-82">
          <mxGeometry relative="1" as="geometry">
            <mxPoint x="595" y="1210" as="sourcePoint" />
            <mxPoint x="595" y="1238" as="targetPoint" />
          </mxGeometry>
        </mxCell>
        <mxCell id="lkC9FIdTwaO1htC5HUpL-85" value="" style="fontStyle=1;strokeColor=#003366;strokeWidth=1;html=1;" edge="1" parent="1" source="lkC9FIdTwaO1htC5HUpL-74" target="lkC9FIdTwaO1htC5HUpL-84">
          <mxGeometry relative="1" as="geometry">
            <mxPoint x="585" y="1292" as="sourcePoint" />
            <mxPoint x="585" y="1408" as="targetPoint" />
          </mxGeometry>
        </mxCell>
        <mxCell id="lkC9FIdTwaO1htC5HUpL-84" value="Ingin Menambahkan Item Ke Keranjang Belanja Lagi?" style="rounded=1;whiteSpace=wrap;html=1;strokeWidth=2;" vertex="1" parent="1">
          <mxGeometry x="494.5" y="1310" width="180" height="80" as="geometry" />
        </mxCell>
        <mxCell id="lkC9FIdTwaO1htC5HUpL-86" style="fontStyle=1;strokeColor=#003366;strokeWidth=3;html=1;" edge="1" parent="1" source="lkC9FIdTwaO1htC5HUpL-77" target="lkC9FIdTwaO1htC5HUpL-58">
          <mxGeometry relative="1" as="geometry">
            <mxPoint x="660" y="1231" as="sourcePoint" />
            <mxPoint x="670" y="931" as="targetPoint" />
            <Array as="points">
              <mxPoint x="700" y="1160" />
              <mxPoint x="780" y="1160" />
              <mxPoint x="780" y="395" />
            </Array>
          </mxGeometry>
        </mxCell>
        <mxCell id="lkC9FIdTwaO1htC5HUpL-87" style="fontStyle=1;strokeColor=#003366;strokeWidth=4;html=1;" edge="1" parent="1" source="lkC9FIdTwaO1htC5HUpL-82" target="lkC9FIdTwaO1htC5HUpL-63">
          <mxGeometry relative="1" as="geometry">
            <mxPoint x="660" y="1241" as="sourcePoint" />
            <mxPoint x="463" y="405" as="targetPoint" />
            <Array as="points">
              <mxPoint x="585" y="1610" />
              <mxPoint x="710" y="1610" />
              <mxPoint x="840" y="1610" />
              <mxPoint x="840" y="1090" />
              <mxPoint x="840" y="630" />
            </Array>
          </mxGeometry>
        </mxCell>
        <mxCell id="lkC9FIdTwaO1htC5HUpL-88" value="jika pilihan = y" style="text;html=1;align=center;verticalAlign=middle;resizable=0;points=[];autosize=1;strokeColor=none;fillColor=none;" vertex="1" parent="1">
          <mxGeometry x="585" y="1580" width="100" height="30" as="geometry" />
        </mxCell>
        <mxCell id="lkC9FIdTwaO1htC5HUpL-89" value="jika pilihan = n" style="text;html=1;align=center;verticalAlign=middle;resizable=0;points=[];autosize=1;strokeColor=none;fillColor=none;" vertex="1" parent="1">
          <mxGeometry x="649.5" y="1520" width="100" height="30" as="geometry" />
        </mxCell>
        <mxCell id="lkC9FIdTwaO1htC5HUpL-90" style="fontStyle=1;strokeColor=#003366;strokeWidth=1;html=1;" edge="1" parent="1" source="lkC9FIdTwaO1htC5HUpL-61" target="lkC9FIdTwaO1htC5HUpL-60">
          <mxGeometry relative="1" as="geometry">
            <mxPoint x="370" y="470" as="sourcePoint" />
            <mxPoint x="330" y="500" as="targetPoint" />
          </mxGeometry>
        </mxCell>
        <mxCell id="lkC9FIdTwaO1htC5HUpL-91" value="Inisialisasi&lt;br&gt;Fungsi Keranjang_Belanja()" style="rounded=1;whiteSpace=wrap;html=1;strokeWidth=2;" vertex="1" parent="1">
          <mxGeometry x="-19" y="940" width="150" height="64" as="geometry" />
        </mxCell>
        <mxCell id="lkC9FIdTwaO1htC5HUpL-92" style="fontStyle=1;strokeColor=#003366;strokeWidth=1;html=1;" edge="1" parent="1" source="lkC9FIdTwaO1htC5HUpL-60" target="lkC9FIdTwaO1htC5HUpL-91">
          <mxGeometry relative="1" as="geometry">
            <mxPoint x="330" y="470" as="sourcePoint" />
            <mxPoint x="330" y="500" as="targetPoint" />
            <Array as="points">
              <mxPoint x="56" y="630" />
            </Array>
          </mxGeometry>
        </mxCell>
        <mxCell id="lkC9FIdTwaO1htC5HUpL-93" value="jika nomor = 2" style="text;html=1;align=center;verticalAlign=middle;resizable=0;points=[];autosize=1;strokeColor=none;fillColor=none;" vertex="1" parent="1">
          <mxGeometry x="155.5" y="599" width="100" height="30" as="geometry" />
        </mxCell>
        <mxCell id="lkC9FIdTwaO1htC5HUpL-94" value="tampilkan isi dari keranjang_belanja()&lt;br&gt;1. Hapus item&lt;br&gt;2. Hapus semua item&lt;br&gt;3. Lakukan pembayaran" style="rounded=1;whiteSpace=wrap;html=1;strokeWidth=2;" vertex="1" parent="1">
          <mxGeometry x="-39" y="1159" width="190" height="100" as="geometry" />
        </mxCell>
        <mxCell id="lkC9FIdTwaO1htC5HUpL-96" style="fontStyle=1;strokeColor=#003366;strokeWidth=1;html=1;" edge="1" parent="1" source="lkC9FIdTwaO1htC5HUpL-91" target="lkC9FIdTwaO1htC5HUpL-94">
          <mxGeometry relative="1" as="geometry">
            <mxPoint x="341" y="939" as="sourcePoint" />
            <mxPoint x="341" y="969" as="targetPoint" />
          </mxGeometry>
        </mxCell>
        <mxCell id="lkC9FIdTwaO1htC5HUpL-99" value="pilihan (nomor)" style="shape=mxgraph.flowchart.decision;strokeWidth=2;gradientColor=none;gradientDirection=north;fontStyle=0;html=1;" vertex="1" parent="1">
          <mxGeometry x="-8.5" y="1377" width="129" height="82" as="geometry" />
        </mxCell>
        <mxCell id="lkC9FIdTwaO1htC5HUpL-100" value="hapus_item" style="rounded=1;whiteSpace=wrap;html=1;strokeWidth=2;" vertex="1" parent="1">
          <mxGeometry x="-229" y="1275.5" width="150" height="64" as="geometry" />
        </mxCell>
        <mxCell id="lkC9FIdTwaO1htC5HUpL-101" value="" style="edgeStyle=elbowEdgeStyle;elbow=vertical;fontStyle=1;strokeColor=#003366;strokeWidth=1;html=1;" edge="1" parent="1" source="lkC9FIdTwaO1htC5HUpL-99" target="lkC9FIdTwaO1htC5HUpL-100">
          <mxGeometry width="100" height="100" as="geometry">
            <mxPoint x="-8.5" y="1307.75" as="sourcePoint" />
            <mxPoint x="-129" y="1118.5" as="targetPoint" />
            <Array as="points">
              <mxPoint x="-154" y="1420" />
            </Array>
          </mxGeometry>
        </mxCell>
        <mxCell id="lkC9FIdTwaO1htC5HUpL-102" style="fontStyle=1;strokeColor=#003366;strokeWidth=1;html=1;" edge="1" parent="1" source="lkC9FIdTwaO1htC5HUpL-117" target="lkC9FIdTwaO1htC5HUpL-99">
          <mxGeometry relative="1" as="geometry">
            <mxPoint x="66" y="1142" as="sourcePoint" />
            <mxPoint x="66" y="1187" as="targetPoint" />
          </mxGeometry>
        </mxCell>
        <mxCell id="lkC9FIdTwaO1htC5HUpL-103" value="hapus salah satu item di keranjang_belanja()" style="rounded=1;whiteSpace=wrap;html=1;strokeWidth=2;" vertex="1" parent="1">
          <mxGeometry x="-229" y="1066.5" width="150" height="64" as="geometry" />
        </mxCell>
        <mxCell id="lkC9FIdTwaO1htC5HUpL-104" value="hapus_semua_item" style="rounded=1;whiteSpace=wrap;html=1;strokeWidth=2;" vertex="1" parent="1">
          <mxGeometry x="-19" y="1563" width="150" height="64" as="geometry" />
        </mxCell>
        <mxCell id="lkC9FIdTwaO1htC5HUpL-105" value="" style="edgeStyle=elbowEdgeStyle;elbow=vertical;fontStyle=1;strokeColor=#003366;strokeWidth=1;html=1;" edge="1" parent="1" source="lkC9FIdTwaO1htC5HUpL-99" target="lkC9FIdTwaO1htC5HUpL-104">
          <mxGeometry width="100" height="100" as="geometry">
            <mxPoint x="55.5" y="1499" as="sourcePoint" />
            <mxPoint x="-34.5" y="1509" as="targetPoint" />
          </mxGeometry>
        </mxCell>
        <mxCell id="lkC9FIdTwaO1htC5HUpL-106" style="fontStyle=1;strokeColor=#003366;strokeWidth=1;html=1;" edge="1" parent="1" source="lkC9FIdTwaO1htC5HUpL-108" target="lkC9FIdTwaO1htC5HUpL-103">
          <mxGeometry relative="1" as="geometry">
            <mxPoint x="66" y="1140.5" as="sourcePoint" />
            <mxPoint x="66" y="1184.5" as="targetPoint" />
          </mxGeometry>
        </mxCell>
        <mxCell id="lkC9FIdTwaO1htC5HUpL-107" style="fontStyle=1;strokeColor=#003366;strokeWidth=1;html=1;" edge="1" parent="1" source="lkC9FIdTwaO1htC5HUpL-103" target="lkC9FIdTwaO1htC5HUpL-94">
          <mxGeometry relative="1" as="geometry">
            <mxPoint x="-144" y="1193.5" as="sourcePoint" />
            <mxPoint x="-39" y="1098.5" as="targetPoint" />
            <Array as="points">
              <mxPoint x="56" y="1099" />
            </Array>
          </mxGeometry>
        </mxCell>
        <mxCell id="lkC9FIdTwaO1htC5HUpL-109" value="" style="fontStyle=1;strokeColor=#003366;strokeWidth=1;html=1;" edge="1" parent="1" source="lkC9FIdTwaO1htC5HUpL-100" target="lkC9FIdTwaO1htC5HUpL-108">
          <mxGeometry relative="1" as="geometry">
            <mxPoint x="-154" y="1275.5" as="sourcePoint" />
            <mxPoint x="-154" y="1130.5" as="targetPoint" />
          </mxGeometry>
        </mxCell>
        <mxCell id="lkC9FIdTwaO1htC5HUpL-108" value="pilihan (nomor)" style="shape=mxgraph.flowchart.decision;strokeWidth=2;gradientColor=none;gradientDirection=north;fontStyle=0;html=1;" vertex="1" parent="1">
          <mxGeometry x="-218.5" y="1166.5" width="129" height="82" as="geometry" />
        </mxCell>
        <mxCell id="lkC9FIdTwaO1htC5HUpL-111" value="" style="fontStyle=1;strokeColor=#003366;strokeWidth=1;html=1;" edge="1" parent="1" source="lkC9FIdTwaO1htC5HUpL-63" target="lkC9FIdTwaO1htC5HUpL-110">
          <mxGeometry relative="1" as="geometry">
            <mxPoint x="585" y="663" as="sourcePoint" />
            <mxPoint x="585" y="810" as="targetPoint" />
          </mxGeometry>
        </mxCell>
        <mxCell id="lkC9FIdTwaO1htC5HUpL-110" value="Input Pilihan" style="shape=mxgraph.flowchart.data;strokeWidth=2;gradientColor=none;gradientDirection=north;fontStyle=0;html=1;" vertex="1" parent="1">
          <mxGeometry x="505" y="700" width="159" height="80" as="geometry" />
        </mxCell>
        <mxCell id="lkC9FIdTwaO1htC5HUpL-113" value="" style="fontStyle=1;strokeColor=#003366;strokeWidth=1;html=1;" edge="1" parent="1" source="lkC9FIdTwaO1htC5HUpL-67" target="lkC9FIdTwaO1htC5HUpL-112">
          <mxGeometry relative="1" as="geometry">
            <mxPoint x="585" y="984" as="sourcePoint" />
            <mxPoint x="585" y="1080" as="targetPoint" />
          </mxGeometry>
        </mxCell>
        <mxCell id="lkC9FIdTwaO1htC5HUpL-112" value="Input Pilihan" style="shape=mxgraph.flowchart.data;strokeWidth=2;gradientColor=none;gradientDirection=north;fontStyle=0;html=1;" vertex="1" parent="1">
          <mxGeometry x="505" y="1010" width="159" height="80" as="geometry" />
        </mxCell>
        <mxCell id="lkC9FIdTwaO1htC5HUpL-115" value="" style="fontStyle=1;strokeColor=#003366;strokeWidth=1;html=1;" edge="1" parent="1" source="lkC9FIdTwaO1htC5HUpL-84" target="lkC9FIdTwaO1htC5HUpL-114">
          <mxGeometry relative="1" as="geometry">
            <mxPoint x="585" y="1398" as="sourcePoint" />
            <mxPoint x="585" y="1510" as="targetPoint" />
          </mxGeometry>
        </mxCell>
        <mxCell id="lkC9FIdTwaO1htC5HUpL-114" value="Input Pilihan" style="shape=mxgraph.flowchart.data;strokeWidth=2;gradientColor=none;gradientDirection=north;fontStyle=0;html=1;" vertex="1" parent="1">
          <mxGeometry x="510" y="1410" width="159" height="80" as="geometry" />
        </mxCell>
        <mxCell id="lkC9FIdTwaO1htC5HUpL-118" value="" style="fontStyle=1;strokeColor=#003366;strokeWidth=1;html=1;" edge="1" parent="1" source="lkC9FIdTwaO1htC5HUpL-94" target="lkC9FIdTwaO1htC5HUpL-117">
          <mxGeometry relative="1" as="geometry">
            <mxPoint x="56.5" y="1259" as="sourcePoint" />
            <mxPoint x="56.5" y="1377" as="targetPoint" />
          </mxGeometry>
        </mxCell>
        <mxCell id="lkC9FIdTwaO1htC5HUpL-117" value="Input Pilihan" style="shape=mxgraph.flowchart.data;strokeWidth=2;gradientColor=none;gradientDirection=north;fontStyle=0;html=1;" vertex="1" parent="1">
          <mxGeometry x="-14" y="1281.5" width="140" height="73" as="geometry" />
        </mxCell>
        <mxCell id="lkC9FIdTwaO1htC5HUpL-119" value="jika nomor = tersedia" style="text;html=1;align=center;verticalAlign=middle;resizable=0;points=[];autosize=1;strokeColor=none;fillColor=none;" vertex="1" parent="1">
          <mxGeometry x="-159" y="1139.5" width="140" height="30" as="geometry" />
        </mxCell>
        <mxCell id="lkC9FIdTwaO1htC5HUpL-120" value="jika nomor = 0" style="text;html=1;align=center;verticalAlign=middle;resizable=0;points=[];autosize=1;strokeColor=none;fillColor=none;" vertex="1" parent="1">
          <mxGeometry x="-304.5" y="1169.5" width="100" height="30" as="geometry" />
        </mxCell>
        <mxCell id="lkC9FIdTwaO1htC5HUpL-121" value="" style="edgeStyle=elbowEdgeStyle;elbow=vertical;fontStyle=1;strokeColor=#003366;strokeWidth=1;html=1;" edge="1" parent="1" source="lkC9FIdTwaO1htC5HUpL-108" target="lkC9FIdTwaO1htC5HUpL-91">
          <mxGeometry width="100" height="100" as="geometry">
            <mxPoint x="-374.5" y="1240" as="sourcePoint" />
            <mxPoint x="-374.5" y="1340" as="targetPoint" />
            <Array as="points">
              <mxPoint x="-300" y="1090" />
            </Array>
          </mxGeometry>
        </mxCell>
        <mxCell id="lkC9FIdTwaO1htC5HUpL-123" value="" style="edgeStyle=elbowEdgeStyle;elbow=vertical;fontStyle=1;strokeColor=#003366;strokeWidth=1;html=1;" edge="1" parent="1" source="lkC9FIdTwaO1htC5HUpL-104" target="lkC9FIdTwaO1htC5HUpL-91">
          <mxGeometry width="100" height="100" as="geometry">
            <mxPoint x="6" y="1478" as="sourcePoint" />
            <mxPoint x="330" y="1360" as="targetPoint" />
            <Array as="points">
              <mxPoint x="-300" y="1371" />
            </Array>
          </mxGeometry>
        </mxCell>
        <mxCell id="lkC9FIdTwaO1htC5HUpL-124" value="jika nomor = 2" style="text;html=1;align=center;verticalAlign=middle;resizable=0;points=[];autosize=1;strokeColor=none;fillColor=none;" vertex="1" parent="1">
          <mxGeometry x="55.5" y="1460" width="100" height="30" as="geometry" />
        </mxCell>
        <mxCell id="lkC9FIdTwaO1htC5HUpL-125" value="jika nomor = 1" style="text;html=1;align=center;verticalAlign=middle;resizable=0;points=[];autosize=1;strokeColor=none;fillColor=none;" vertex="1" parent="1">
          <mxGeometry x="-150" y="1360" width="100" height="30" as="geometry" />
        </mxCell>
        <mxCell id="lkC9FIdTwaO1htC5HUpL-126" value="" style="edgeStyle=elbowEdgeStyle;elbow=vertical;fontStyle=1;strokeColor=#003366;strokeWidth=3;html=1;" edge="1" parent="1" source="lkC9FIdTwaO1htC5HUpL-99" target="lkC9FIdTwaO1htC5HUpL-58">
          <mxGeometry width="100" height="100" as="geometry">
            <mxPoint x="-83" y="1460" as="sourcePoint" />
            <mxPoint x="-229" y="1380" as="targetPoint" />
            <Array as="points">
              <mxPoint x="-300" y="1250" />
            </Array>
          </mxGeometry>
        </mxCell>
        <mxCell id="lkC9FIdTwaO1htC5HUpL-127" value="jika nomor = 0" style="text;html=1;align=center;verticalAlign=middle;resizable=0;points=[];autosize=1;strokeColor=none;fillColor=none;" vertex="1" parent="1">
          <mxGeometry x="-304.5" y="862" width="100" height="30" as="geometry" />
        </mxCell>
        <mxCell id="lkC9FIdTwaO1htC5HUpL-130" style="fontStyle=1;strokeColor=#003366;strokeWidth=1;html=1;" edge="1" parent="1" source="lkC9FIdTwaO1htC5HUpL-74" target="lkC9FIdTwaO1htC5HUpL-94">
          <mxGeometry relative="1" as="geometry">
            <mxPoint x="297" y="1228" as="sourcePoint" />
            <mxPoint x="100" y="772" as="targetPoint" />
            <Array as="points">
              <mxPoint x="330" y="1260" />
              <mxPoint x="330" y="1209" />
            </Array>
          </mxGeometry>
        </mxCell>
        <mxCell id="lkC9FIdTwaO1htC5HUpL-131" value="jika nomor = 3" style="text;html=1;align=center;verticalAlign=middle;resizable=0;points=[];autosize=1;strokeColor=none;fillColor=none;" vertex="1" parent="1">
          <mxGeometry x="325" y="680" width="100" height="30" as="geometry" />
        </mxCell>
        <mxCell id="lkC9FIdTwaO1htC5HUpL-132" value="Lakukan_pembayaran()&lt;br&gt;Cetak Nota dalam bentuk txt" style="rounded=1;whiteSpace=wrap;html=1;strokeWidth=4;" vertex="1" parent="1">
          <mxGeometry x="217.5" y="1592" width="205" height="120" as="geometry" />
        </mxCell>
        <mxCell id="lkC9FIdTwaO1htC5HUpL-134" value="" style="edgeStyle=elbowEdgeStyle;elbow=vertical;fontStyle=1;strokeColor=#003366;strokeWidth=5;html=1;" edge="1" parent="1" source="lkC9FIdTwaO1htC5HUpL-99" target="lkC9FIdTwaO1htC5HUpL-132">
          <mxGeometry width="100" height="100" as="geometry">
            <mxPoint x="2" y="1428" as="sourcePoint" />
            <mxPoint x="198" y="405" as="targetPoint" />
            <Array as="points">
              <mxPoint x="320" y="1420" />
            </Array>
          </mxGeometry>
        </mxCell>
        <mxCell id="lkC9FIdTwaO1htC5HUpL-136" value="" style="edgeStyle=elbowEdgeStyle;elbow=vertical;fontStyle=1;strokeColor=#003366;strokeWidth=5;html=1;" edge="1" parent="1" source="lkC9FIdTwaO1htC5HUpL-132" target="lkC9FIdTwaO1htC5HUpL-56">
          <mxGeometry width="100" height="100" as="geometry">
            <mxPoint x="255.5" y="821" as="sourcePoint" />
            <mxPoint x="151" y="280" as="targetPoint" />
            <Array as="points">
              <mxPoint x="-380" y="980" />
            </Array>
          </mxGeometry>
        </mxCell>
      </root>
    </mxGraphModel>
  </diagram>
</mxfile>
